<svg width="200" height="200" viewBox="0 0 200 200" fill="none" xmlns="http://www.w3.org/2000/svg">
<path d="M71.5162 112.196L70.856 111.023L91.8084 101.682L93.2277 104.772L71.5162 112.196Z" fill="#9D8009" stroke="black" stroke-miterlimit="2.9238"/>
<path d="M96.4027 98.2975C93.7782 97.5253 92.0181 100.729 91.8413 101.93L93.2277 104.772C93.7233 104.706 95.2297 105.414 98.7456 104.543C102.262 103.673 104.035 98.7967 104.333 97.2439C101.557 99.126 99.0273 99.0697 96.4027 98.2975Z" fill="white" stroke="black" stroke-miterlimit="2.9238"/>
<path d="M103.903 97.8055C102.482 98.4986 101.557 99.126 99.5083 98.8937L100.136 99.8192L99.7058 100.381L100.763 100.745L100.399 101.802L101.456 102.166C102.316 101.043 103.605 99.3582 103.903 97.8055Z" fill="#4C89E4"/>
</svg>
