<?xml version="1.0" encoding="UTF-8"?>
<svg xmlns="http://www.w3.org/2000/svg" xmlns:xlink="http://www.w3.org/1999/xlink" width="200px" height="200px" viewBox="0 0 200 200" version="1.1">
<g id="surface1">
<path style=" stroke:none;fill-rule:nonzero;fill:rgb(0.784314%,0.784314%,0.784314%);fill-opacity:1;" d="M 158.519531 31.984375 C 168.828125 40.824219 177.097656 52.046875 182.464844 64.523438 C 191.867188 86.128906 192.183594 111.480469 183.359375 133.320312 C 173.375 158.695312 151.144531 178.871094 124.878906 186.246094 C 103.21875 192.535156 79.179688 190.300781 59.140625 179.90625 C 42.449219 171.394531 28.558594 157.515625 20.074219 140.800781 C 7.160156 116 7.019531 85.089844 19.582031 60.125 C 26.191406 46.796875 36.175781 35.160156 48.351562 26.613281 C 68.683594 12.066406 95.289062 6.871094 119.636719 12.425781 C 133.964844 15.542969 147.4375 22.398438 158.519531 31.984375 M 86.039062 20.976562 C 88.535156 23.546875 90.9375 26.214844 93.503906 28.710938 C 104.984375 30.492188 116.453125 32.359375 127.933594 34.070312 C 131.214844 32.535156 134.382812 30.761719 137.640625 29.175781 C 122.03125 20.683594 103.507812 17.910156 86.039062 20.976562 M 171.109375 62.835938 C 169.542969 65.789062 168.085938 68.796875 166.527344 71.75 C 166.039062 72.410156 166.386719 73.21875 166.46875 73.941406 C 168.164062 84.828125 169.871094 95.71875 171.566406 106.605469 C 173.769531 109.261719 176.5625 111.5 179.003906 113.980469 C 182.15625 96.695312 179.339844 78.367188 171.109375 62.835938 M 126.570312 37.828125 C 115.597656 36.082031 104.617188 34.371094 93.636719 32.675781 C 89.320312 41.148438 85.019531 49.632812 80.8125 58.160156 C 83.058594 64.277344 85.335938 70.386719 87.625 76.488281 C 97.164062 77.984375 106.695312 79.519531 116.238281 80.980469 C 121.230469 76.09375 126.148438 71.121094 131.078125 66.167969 C 129.605469 56.71875 128.113281 47.265625 126.570312 37.828125 M 162.179688 73.445312 C 152.746094 71.886719 143.296875 70.402344 133.84375 68.945312 C 128.871094 73.84375 123.953125 78.800781 119.027344 83.742188 C 120.496094 93.304688 122.035156 102.847656 123.5625 112.398438 C 129.710938 114.601562 135.78125 117.035156 141.957031 119.175781 C 150.433594 114.929688 158.90625 110.667969 167.347656 106.359375 C 165.640625 95.386719 163.960938 84.40625 162.179688 73.445312 M 49.851562 56.875 C 44.535156 66.167969 39.335938 75.53125 34.113281 84.871094 C 40.886719 91.675781 47.617188 98.523438 54.445312 105.269531 C 59.902344 104.835938 65.363281 104.53125 70.816406 104.066406 C 75.25 95.429688 79.660156 86.773438 84.03125 78.105469 C 81.785156 72.050781 79.390625 66.042969 77.09375 60.007812 C 68.027344 58.855469 58.929688 57.929688 49.851562 56.875 M 121.835938 115.953125 C 113.195312 120.335938 104.558594 124.726562 95.9375 129.148438 C 95.425781 134.597656 95.183594 140.070312 94.710938 145.523438 C 101.367188 152.398438 108.09375 159.214844 114.832031 166.007812 C 124.664062 161.089844 134.464844 156.125 144.269531 151.160156 C 142.925781 141.765625 141.484375 132.378906 140.070312 122.992188 C 134.019531 120.585938 127.941406 118.222656 121.835938 115.953125 M 44.789062 41.789062 C 31.746094 54.078125 23.042969 70.871094 20.585938 88.621094 C 23.828125 86.941406 27.152344 85.390625 30.339844 83.621094 C 35.785156 73.871094 41.34375 64.167969 46.683594 54.359375 C 46.101562 50.164062 45.4375 45.976562 44.789062 41.789062 M 146.695312 154.335938 C 136.742188 159.292969 126.832031 164.351562 116.890625 169.335938 C 116.4375 169.585938 115.867188 169.761719 115.65625 170.289062 C 114.085938 173.367188 112.503906 176.433594 110.933594 179.511719 C 128.546875 177.132812 145.277344 168.683594 157.589844 155.859375 C 153.964844 155.332031 150.34375 154.707031 146.695312 154.335938 M 71.296875 107.964844 C 65.824219 108.316406 60.351562 108.660156 54.886719 109.113281 C 50.527344 117.597656 46.175781 126.085938 41.84375 134.585938 C 49.605469 142.371094 57.289062 150.246094 65.136719 157.949219 C 73.644531 153.671875 82.148438 149.378906 90.640625 145.066406 C 91.125 139.59375 91.632812 134.125 92.023438 128.644531 C 85.101562 121.765625 78.25 114.808594 71.296875 107.964844 M 27.824219 135.066406 C 35.542969 150.988281 48.691406 164.167969 64.546875 172 C 63.96875 168.390625 63.582031 164.726562 62.800781 161.175781 C 54.710938 153.054688 46.664062 144.882812 38.515625 136.828125 C 34.980469 136.101562 31.390625 135.640625 27.824219 135.066406 Z M 27.824219 135.066406 "/>
</g>
</svg>
