<?xml version="1.0" encoding="UTF-8"?>
<svg xmlns="http://www.w3.org/2000/svg" xmlns:xlink="http://www.w3.org/1999/xlink" width="64px" height="64px" viewBox="0 0 64 64" version="1.1">
<g id="surface1">
<path style=" stroke:none;fill-rule:nonzero;fill:rgb(0.784314%,0.784314%,0.784314%);fill-opacity:1;" d="M 50.726562 10.234375 C 54.023438 13.0625 56.671875 16.65625 58.390625 20.648438 C 61.398438 27.5625 61.5 35.671875 58.675781 42.664062 C 55.480469 50.78125 48.367188 57.238281 39.960938 59.601562 C 33.03125 61.609375 25.335938 60.898438 18.925781 57.570312 C 13.585938 54.84375 9.140625 50.40625 6.421875 45.054688 C 2.289062 37.121094 2.246094 27.226562 6.265625 19.242188 C 8.382812 14.976562 11.578125 11.25 15.472656 8.515625 C 21.976562 3.859375 30.492188 2.199219 38.28125 3.976562 C 42.867188 4.976562 47.179688 7.167969 50.726562 10.234375 M 27.53125 6.710938 C 28.328125 7.535156 29.101562 8.390625 29.921875 9.1875 C 33.59375 9.757812 37.265625 10.355469 40.9375 10.902344 C 41.988281 10.410156 43 9.84375 44.046875 9.335938 C 39.050781 6.617188 33.125 5.730469 27.53125 6.710938 M 54.753906 20.109375 C 54.253906 21.054688 53.789062 22.015625 53.289062 22.960938 C 53.132812 23.171875 53.242188 23.429688 53.269531 23.664062 C 53.8125 27.144531 54.359375 30.628906 54.902344 34.113281 C 55.605469 34.960938 56.5 35.679688 57.28125 36.476562 C 58.289062 30.945312 57.390625 25.078125 54.753906 20.109375 M 40.5 12.105469 C 36.992188 11.546875 33.476562 11 29.960938 10.453125 C 28.582031 13.167969 27.203125 15.882812 25.859375 18.609375 C 26.578125 20.570312 27.304688 22.523438 28.039062 24.476562 C 31.09375 24.953125 34.140625 25.445312 37.195312 25.914062 C 38.796875 24.351562 40.367188 22.757812 41.945312 21.171875 C 41.472656 18.148438 40.996094 15.125 40.5 12.105469 M 51.898438 23.5 C 48.878906 23.003906 45.855469 22.53125 42.828125 22.0625 C 41.238281 23.632812 39.664062 25.21875 38.089844 26.796875 C 38.558594 29.859375 39.050781 32.914062 39.539062 35.96875 C 41.507812 36.671875 43.449219 37.453125 45.425781 38.132812 C 48.140625 36.777344 50.851562 35.414062 53.550781 34.035156 C 53.003906 30.523438 52.46875 27.007812 51.898438 23.5 M 15.953125 18.203125 C 14.25 21.171875 12.585938 24.171875 10.914062 27.15625 C 13.085938 29.335938 15.238281 31.527344 17.421875 33.6875 C 19.167969 33.546875 20.914062 33.453125 22.664062 33.304688 C 24.078125 30.539062 25.492188 27.765625 26.890625 24.992188 C 26.171875 23.054688 25.40625 21.132812 24.671875 19.203125 C 21.769531 18.835938 18.859375 18.539062 15.953125 18.203125 M 38.988281 37.105469 C 36.222656 38.507812 33.460938 39.914062 30.699219 41.328125 C 30.539062 43.070312 30.460938 44.820312 30.304688 46.566406 C 32.4375 48.765625 34.589844 50.949219 36.746094 53.125 C 39.890625 51.546875 43.03125 49.960938 46.164062 48.371094 C 45.734375 45.367188 45.273438 42.359375 44.820312 39.359375 C 42.886719 38.585938 40.941406 37.832031 38.988281 37.105469 M 14.332031 13.375 C 10.15625 17.304688 7.375 22.679688 6.585938 28.359375 C 7.625 27.820312 8.6875 27.324219 9.710938 26.757812 C 11.453125 23.640625 13.230469 20.53125 14.9375 17.394531 C 14.75 16.054688 14.539062 14.710938 14.332031 13.375 M 46.945312 49.386719 C 43.757812 50.972656 40.585938 52.59375 37.40625 54.1875 C 37.257812 54.265625 37.078125 54.324219 37.007812 54.492188 C 36.507812 55.476562 36 56.460938 35.5 57.445312 C 41.132812 56.679688 46.488281 53.976562 50.429688 49.875 C 49.265625 49.707031 48.109375 49.507812 46.945312 49.386719 M 22.8125 34.546875 C 21.0625 34.660156 19.3125 34.773438 17.5625 34.914062 C 16.167969 37.632812 14.777344 40.347656 13.390625 43.066406 C 15.875 45.558594 18.332031 48.078125 20.84375 50.542969 C 23.566406 49.171875 26.289062 47.800781 29.007812 46.421875 C 29.160156 44.671875 29.320312 42.921875 29.445312 41.164062 C 27.234375 38.964844 25.039062 36.738281 22.8125 34.546875 M 8.90625 43.21875 C 11.375 48.316406 15.578125 52.53125 20.65625 55.039062 C 20.46875 53.882812 20.347656 52.710938 20.09375 51.578125 C 17.507812 48.976562 14.933594 46.359375 12.328125 43.785156 C 11.195312 43.554688 10.046875 43.40625 8.90625 43.21875 Z M 8.90625 43.21875 "/>
</g>
</svg>
