<?xml version="1.0" standalone="no"?>
<!DOCTYPE svg PUBLIC "-//W3C//DTD SVG 20010904//EN"
 "http://www.w3.org/TR/2001/REC-SVG-20010904/DTD/svg10.dtd">
<svg version="1.0" xmlns="http://www.w3.org/2000/svg"
 width="1238.000000pt" height="1238.000000pt" viewBox="0 0 1238.000000 1238.000000"
 preserveAspectRatio="xMidYMid meet">

<g transform="translate(0.000000,1238.000000) scale(0.100000,-0.100000)"
fill="#000000" stroke="none">
<path d="M0 6190 l0 -6190 6190 0 6190 0 0 6190 0 6190 -6190 0 -6190 0 0
-6190z m6562 5155 c472 -40 842 -121 1325 -289 370 -130 832 -366 1138 -582
61 -42 146 -102 189 -133 44 -31 129 -99 190 -151 62 -52 136 -116 166 -142
95 -81 463 -452 428 -432 -7 4 -4 -4 8 -17 11 -13 49 -58 85 -99 158 -183 382
-505 501 -720 101 -183 241 -472 295 -610 202 -515 292 -880 355 -1440 17
-153 17 -853 -1 -1005 -16 -144 -55 -388 -86 -547 -29 -147 -69 -287 -158
-558 -109 -330 -175 -483 -343 -795 -187 -350 -337 -571 -604 -890 -339 -405
-823 -820 -1270 -1086 -166 -99 -572 -301 -720 -359 -185 -71 -528 -184 -685
-225 -338 -88 -809 -144 -1220 -145 -478 -1 -996 66 -1354 175 -320 98 -543
176 -726 256 -110 47 -500 250 -585 304 -104 65 -351 233 -425 289 -244 183
-575 487 -728 666 -45 52 -111 129 -147 170 -101 115 -126 148 -282 380 -170
251 -213 324 -352 600 -147 291 -222 484 -333 855 -65 216 -97 349 -127 525
-110 650 -102 1304 25 1935 16 83 43 193 59 245 16 52 45 149 64 215 84 286
173 511 298 760 157 311 178 348 356 610 138 204 211 306 244 338 10 10 69 79
132 155 139 165 354 379 531 527 72 60 132 111 135 114 36 42 554 401 579 401
6 0 11 3 11 8 0 4 10 12 23 18 50 25 346 179 402 209 125 68 414 176 750 280
66 21 139 44 162 51 140 45 561 115 833 139 208 18 650 18 862 0z"/>
<path d="M6100 11290 c-9 -6 -94 -10 -207 -10 -117 0 -194 -4 -198 -10 -3 -5
-48 -10 -99 -10 -50 0 -96 -4 -102 -9 -5 -5 -36 -12 -69 -15 -134 -12 -171
-17 -190 -26 -11 -5 -40 -11 -65 -14 -25 -2 -65 -9 -90 -16 -25 -6 -65 -15
-90 -20 -25 -5 -63 -13 -85 -19 -22 -6 -58 -14 -80 -19 -22 -6 -65 -17 -95
-27 -30 -9 -73 -21 -95 -27 -105 -27 -230 -74 -263 -98 -15 -11 -54 -28 -87
-39 -74 -24 -159 -58 -250 -101 -224 -104 -308 -147 -323 -164 -9 -10 -53 -36
-96 -58 -44 -22 -91 -48 -105 -58 -75 -50 -136 -88 -211 -129 -30 -16 -85 -56
-122 -88 -68 -59 -78 -66 -228 -176 -47 -34 -130 -106 -184 -159 -54 -53 -104
-99 -111 -102 -24 -9 -378 -392 -436 -471 -106 -145 -114 -155 -172 -223 -32
-37 -72 -92 -88 -122 -16 -30 -54 -93 -84 -140 -30 -47 -75 -123 -99 -170 -24
-47 -52 -93 -62 -102 -18 -16 -90 -159 -172 -343 -65 -147 -73 -167 -94 -230
-10 -33 -30 -76 -43 -95 -31 -45 -73 -163 -105 -300 -5 -19 -18 -69 -30 -110
-25 -85 -37 -136 -50 -200 -5 -25 -14 -65 -20 -90 -6 -25 -16 -71 -21 -102 -5
-32 -14 -86 -19 -120 -35 -207 -48 -346 -60 -603 -11 -245 -11 -226 0 -470 15
-325 20 -389 30 -410 5 -11 11 -45 14 -75 13 -134 18 -166 26 -185 5 -11 11
-40 14 -65 2 -25 9 -64 15 -87 25 -99 33 -130 40 -173 5 -25 18 -79 31 -120
12 -41 25 -91 30 -110 20 -84 42 -157 60 -198 11 -25 20 -50 20 -56 0 -7 11
-27 24 -45 13 -18 31 -56 40 -84 41 -131 237 -555 270 -585 10 -9 36 -51 57
-92 21 -41 65 -118 98 -170 33 -52 74 -120 90 -150 16 -30 56 -85 88 -122 58
-68 69 -81 169 -218 79 -108 327 -371 513 -545 88 -82 167 -152 173 -154 7 -2
19 -12 26 -23 7 -10 28 -25 45 -34 39 -20 133 -92 205 -157 30 -26 75 -59 100
-74 42 -23 128 -76 251 -155 57 -36 69 -35 74 5 3 29 4 28 5 -9 2 -36 6 -43
33 -54 17 -7 48 -27 68 -44 64 -52 553 -276 604 -276 8 0 31 -12 52 -26 35
-23 233 -95 315 -115 19 -4 69 -17 110 -29 41 -13 95 -26 120 -31 42 -7 66
-13 173 -40 23 -6 68 -15 100 -20 31 -5 85 -14 120 -19 223 -37 365 -51 587
-55 115 -3 193 -9 206 -16 14 -7 35 -9 56 -4 18 4 121 11 228 16 107 4 236 13
285 18 168 19 250 30 313 41 34 5 88 14 120 19 31 5 76 14 100 20 106 27 130
33 172 40 25 5 79 18 120 31 41 12 91 25 110 30 137 32 269 80 307 110 14 11
44 25 67 31 102 27 563 238 594 272 9 11 35 28 57 39 69 35 218 121 266 154
26 18 69 44 96 57 27 14 79 52 116 84 67 59 126 105 167 133 179 119 650 581
795 781 98 134 109 149 168 217 32 37 72 92 88 122 16 30 57 98 90 150 33 52
76 127 95 165 20 39 46 81 59 95 41 46 247 492 274 595 6 22 22 56 35 74 23
31 65 146 95 261 7 25 16 59 21 75 23 76 43 154 51 195 4 25 13 65 19 90 6 25
15 66 21 93 5 26 14 71 19 100 48 236 70 444 76 711 3 120 9 205 16 213 6 8 7
20 2 30 -5 10 -12 110 -16 223 -7 204 -17 337 -38 480 -6 41 -13 98 -16 125
-3 28 -9 59 -14 70 -5 11 -11 40 -14 65 -2 25 -9 65 -16 90 -6 25 -15 65 -20
90 -13 64 -25 115 -50 200 -12 41 -25 91 -30 110 -32 137 -74 255 -105 300
-13 19 -33 62 -43 95 -21 63 -29 83 -94 230 -82 184 -154 327 -172 343 -10 9
-36 51 -57 92 -21 41 -65 118 -98 170 -33 52 -74 120 -90 150 -16 30 -57 87
-90 125 -85 99 -96 112 -142 183 -102 153 -591 647 -769 777 -138 99 -151 110
-214 165 -35 31 -90 71 -122 88 -33 18 -97 58 -144 88 -47 29 -123 74 -170 98
-47 24 -93 52 -102 62 -16 18 -159 90 -343 172 -147 65 -167 73 -230 94 -33
10 -76 30 -95 43 -34 23 -126 57 -245 90 -33 9 -82 23 -110 32 -27 8 -68 19
-90 25 -22 5 -58 13 -80 19 -22 6 -60 14 -85 19 -25 5 -65 14 -90 20 -25 6
-71 16 -102 21 -32 5 -86 14 -120 19 -208 35 -349 49 -598 59 -107 5 -211 12
-230 15 -19 4 -42 2 -50 -4z m1447 -406 c-3 -3 -12 -4 -19 -1 -8 3 -5 6 6 6
11 1 17 -2 13 -5z m-2854 -150 c18 -9 64 -39 102 -66 39 -27 93 -63 121 -81
60 -38 97 -67 169 -129 29 -25 100 -77 157 -114 56 -38 129 -89 162 -114 115
-88 164 -125 257 -189 35 -25 89 -63 119 -86 30 -23 71 -50 90 -60 19 -9 56
-38 83 -63 l47 -46 0 -736 c-1 -562 -4 -739 -13 -751 -7 -8 -41 -34 -77 -57
-100 -64 -168 -113 -227 -162 -94 -80 -121 -100 -132 -100 -6 0 -40 -22 -74
-48 -34 -26 -84 -63 -112 -81 -27 -19 -58 -45 -69 -58 -10 -13 -37 -33 -60
-44 -22 -12 -52 -31 -66 -43 -37 -33 -220 -161 -257 -180 -17 -9 -58 -40 -90
-69 -32 -29 -83 -70 -113 -90 -30 -20 -66 -45 -80 -55 -14 -10 -58 -41 -99
-67 -41 -27 -88 -64 -105 -81 -17 -18 -90 -71 -161 -119 -72 -48 -146 -101
-167 -117 -43 -34 -98 -58 -132 -58 -26 0 -66 12 -411 122 -121 38 -265 84
-320 101 -55 17 -107 36 -115 43 -14 12 -90 37 -345 117 -159 49 -195 72 -195
125 0 10 -9 27 -20 37 -11 10 -20 27 -20 37 0 11 -22 88 -49 171 -27 84 -59
186 -71 227 -12 41 -35 118 -50 170 -16 52 -43 140 -59 195 -17 55 -38 126
-46 158 -9 31 -20 57 -24 57 -7 0 -33 74 -92 268 -19 60 -14 133 14 187 13 28
35 59 47 70 13 11 56 65 96 120 41 55 86 117 101 138 51 69 137 167 160 182
12 8 40 39 61 68 44 59 219 236 272 275 19 14 74 65 122 114 48 48 92 88 97
88 6 0 25 13 43 29 18 15 44 34 58 41 34 18 146 104 195 150 22 21 56 46 75
55 38 19 228 131 299 177 25 15 53 28 62 28 10 0 33 13 51 29 33 28 184 109
255 135 21 8 62 23 91 35 28 12 76 30 105 42 28 12 79 30 112 41 33 11 76 26
95 33 49 18 96 18 133 -1z m3087 -18 c52 -19 119 -43 148 -55 135 -54 159 -64
195 -77 71 -26 222 -107 255 -135 18 -16 40 -29 49 -29 18 0 104 -48 268 -152
22 -14 61 -36 85 -48 25 -13 71 -46 102 -75 31 -28 90 -73 130 -101 40 -27 93
-64 118 -83 139 -103 645 -611 738 -741 105 -146 181 -247 196 -259 9 -8 30
-34 46 -58 27 -40 30 -52 30 -121 -1 -64 -8 -99 -44 -204 -23 -70 -48 -133
-54 -141 -7 -8 -19 -39 -27 -68 -15 -51 -34 -115 -105 -349 -15 -52 -38 -129
-50 -170 -12 -41 -44 -143 -71 -227 -27 -83 -49 -160 -49 -171 0 -10 -9 -27
-20 -37 -11 -10 -20 -27 -20 -37 0 -10 -7 -29 -15 -42 -16 -24 -32 -30 -420
-152 -60 -20 -117 -41 -125 -48 -8 -7 -35 -18 -60 -25 -45 -13 -223 -68 -522
-162 -90 -28 -176 -55 -192 -60 -48 -15 -109 -10 -143 10 -17 11 -63 44 -102
73 -39 29 -89 64 -113 78 -23 14 -65 45 -93 70 -56 49 -117 94 -211 155 -123
80 -190 130 -247 182 -32 29 -73 60 -90 69 -37 19 -220 147 -257 180 -14 12
-44 31 -66 43 -23 11 -50 31 -60 44 -11 13 -65 56 -121 96 -57 40 -106 77
-109 82 -3 5 -12 9 -21 9 -15 0 -38 17 -136 100 -60 50 -130 100 -227 161 -36
22 -71 48 -77 57 -20 25 -19 1452 1 1490 18 35 72 85 113 106 18 9 61 37 95
61 35 25 88 63 118 85 30 22 73 53 95 70 22 16 56 41 75 55 19 14 55 41 80 60
25 19 85 61 133 92 49 32 115 81 149 108 85 71 135 109 198 151 30 21 79 53
108 73 174 118 177 118 322 67z m1460 -736 c0 -5 -2 -10 -4 -10 -3 0 -8 5 -11
10 -3 6 -1 10 4 10 6 0 11 -4 11 -10z m88 -61 c13 -16 20 -29 15 -29 -17 0
-53 31 -53 46 0 21 12 16 38 -17z m539 -2721 c-3 -7 -5 -2 -5 12 0 14 2 19 5
13 2 -7 2 -19 0 -25z m60 -70 c-3 -8 -6 -5 -6 6 -1 11 2 17 5 13 3 -3 4 -12 1
-19z m-100 -110 c25 -18 72 -57 106 -87 34 -29 76 -61 93 -70 17 -9 71 -44
120 -78 49 -35 111 -78 137 -97 27 -19 59 -44 72 -56 22 -21 107 -81 230 -164
135 -90 163 -109 195 -132 19 -13 44 -35 55 -48 11 -13 30 -29 43 -35 21 -11
22 -17 22 -129 0 -222 -32 -545 -79 -787 -5 -27 -12 -70 -16 -95 -3 -25 -10
-62 -15 -82 -6 -21 -14 -56 -20 -78 -5 -22 -15 -59 -21 -82 -6 -24 -15 -60
-20 -80 -22 -92 -34 -124 -50 -143 -10 -11 -34 -74 -54 -140 -20 -66 -52 -158
-71 -205 -20 -47 -45 -107 -56 -135 -47 -116 -115 -251 -145 -288 -18 -21 -33
-46 -33 -55 0 -14 -48 -103 -105 -192 -13 -19 -46 -74 -75 -123 -40 -67 -58
-88 -78 -93 -15 -3 -36 -8 -47 -11 -11 -3 -49 -9 -85 -14 -36 -4 -94 -13 -130
-19 -36 -6 -92 -14 -125 -19 -33 -5 -78 -12 -100 -15 -22 -4 -69 -11 -105 -16
-36 -6 -110 -17 -165 -26 -108 -17 -352 -54 -531 -80 -61 -9 -127 -14 -146
-10 -30 5 -109 80 -511 483 -324 324 -477 483 -477 497 0 27 22 89 37 108 12
14 24 49 62 173 12 39 39 126 61 195 21 69 49 159 60 200 12 41 44 144 71 228
27 84 49 160 49 169 0 9 8 26 19 37 17 19 48 106 101 286 69 231 87 291 132
435 27 88 54 178 61 200 6 22 18 49 28 60 9 11 27 53 40 93 24 79 40 102 68
102 10 0 29 8 42 18 22 16 140 57 389 132 52 16 169 52 260 81 91 28 194 61
230 72 36 11 74 27 85 36 11 10 52 27 90 38 39 12 106 33 150 47 44 14 86 25
94 25 8 1 34 -14 58 -31z m-7204 -7 c51 -16 112 -35 137 -42 25 -7 54 -20 65
-29 11 -10 52 -27 90 -39 39 -12 141 -44 228 -71 275 -87 480 -151 552 -173
39 -11 79 -28 90 -38 11 -9 36 -22 56 -28 50 -16 67 -37 85 -107 8 -32 23 -68
33 -79 10 -11 23 -40 30 -65 7 -25 35 -117 63 -205 48 -156 85 -277 127 -420
50 -174 85 -272 102 -291 11 -11 19 -28 19 -38 0 -9 22 -86 49 -169 27 -84 58
-183 69 -222 19 -65 48 -158 138 -445 19 -63 41 -121 47 -129 24 -28 56 -147
57 -207 0 -61 -1 -62 -46 -100 -25 -22 -67 -61 -94 -89 -81 -81 -265 -266
-319 -320 -28 -27 -101 -100 -162 -161 -61 -62 -133 -134 -160 -160 -27 -27
-82 -84 -122 -127 l-72 -78 -90 5 c-49 2 -118 9 -152 15 -139 24 -191 32 -263
41 -41 5 -104 14 -140 20 -36 6 -92 14 -125 16 -33 3 -67 12 -75 19 -8 7 -51
18 -95 25 -163 23 -401 61 -416 66 -9 2 -21 14 -26 27 -6 12 -35 49 -65 82
-30 33 -65 79 -77 103 -12 23 -43 75 -69 116 -75 118 -132 222 -132 239 0 9
-13 31 -29 49 -28 33 -109 184 -135 255 -8 21 -23 62 -35 91 -12 28 -30 76
-42 105 -37 92 -50 130 -75 217 -14 47 -32 90 -40 96 -15 12 -28 45 -45 117
-5 20 -13 55 -19 77 -5 22 -14 58 -20 80 -5 22 -15 59 -21 83 -5 23 -14 67
-20 97 -5 30 -13 78 -19 105 -63 312 -104 885 -64 917 8 7 33 29 54 48 54 49
97 81 153 116 74 45 267 179 317 219 62 50 174 131 237 172 28 18 55 37 58 43
4 6 21 16 38 24 18 7 57 35 87 62 68 62 147 114 173 114 10 0 60 -13 110 -29z
m8267 -317 c0 -8 -4 -12 -10 -9 -5 3 -10 10 -10 16 0 5 5 9 10 9 6 0 10 -7 10
-16z m-2904 -1011 c-10 -10 -19 5 -10 18 6 11 8 11 12 0 2 -7 1 -15 -2 -18z
m-1428 -818 c-3 -3 -9 2 -12 12 -6 14 -5 15 5 6 7 -7 10 -15 7 -18z m1079 -52
c-3 -10 -5 -2 -5 17 0 19 2 27 5 18 2 -10 2 -26 0 -35z m-947 7 c0 -5 -2 -10
-4 -10 -3 0 -8 5 -11 10 -3 6 -1 10 4 10 6 0 11 -4 11 -10z m905 -80 c3 -5 2
-10 -4 -10 -5 0 -13 5 -16 10 -3 6 -2 10 4 10 5 0 13 -4 16 -10z m-1021 -104
c9 -27 14 -51 12 -53 -4 -4 -20 37 -37 91 -15 49 7 15 25 -38z m833 -28 c-3
-8 -6 -5 -6 6 -1 11 2 17 5 13 3 -3 4 -12 1 -19z m-842 -88 c3 -5 1 -10 -4
-10 -6 0 -11 5 -11 10 0 6 2 10 4 10 3 0 8 -4 11 -10z m45 -65 c5 -14 12 -38
15 -53 4 -21 1 -17 -14 13 -20 40 -26 65 -16 65 3 0 10 -11 15 -25z m48 -190
c0 -29 0 -29 -8 -5 -4 14 -8 39 -8 55 0 29 0 29 8 5 4 -14 8 -38 8 -55z m-521
-17 c-3 -8 -6 -5 -6 6 -1 11 2 17 5 13 3 -3 4 -12 1 -19z m1413 -35 c0 -7 -4
-13 -8 -13 -15 0 -32 24 -32 44 0 18 1 19 20 1 11 -10 20 -24 20 -32z m-835
-50 c12 -27 15 -84 4 -78 -5 4 -9 17 -9 30 0 13 -4 27 -10 30 -12 8 -13 35 -1
35 5 0 12 -8 16 -17z m842 -90 c-3 -10 -5 -4 -5 12 0 17 2 24 5 18 2 -7 2 -21
0 -30z m-428 -32 l363 -1 450 -450 c488 -487 471 -466 457 -565 -19 -129 -61
-412 -79 -525 -11 -69 -24 -154 -30 -190 -12 -80 -19 -129 -31 -200 -5 -30
-11 -68 -13 -85 -7 -70 -31 -95 -121 -128 -22 -8 -64 -24 -92 -36 -29 -12 -77
-30 -105 -42 -92 -37 -131 -50 -218 -76 -47 -13 -94 -32 -105 -42 -22 -19 -50
-28 -222 -70 -40 -10 -101 -25 -143 -37 -14 -3 -50 -10 -80 -15 -30 -4 -80
-13 -110 -19 -99 -20 -164 -30 -255 -40 -49 -6 -97 -13 -105 -16 -17 -7 -80
-11 -345 -22 -364 -16 -788 14 -1115 78 -30 6 -80 15 -110 19 -30 5 -66 12
-80 15 -35 10 -98 26 -145 38 -22 5 -58 14 -80 20 -96 24 -121 33 -140 49 -11
9 -54 27 -95 39 -86 26 -153 49 -225 78 -179 71 -216 86 -267 109 -32 15 -60
34 -62 42 -15 58 -26 117 -36 191 -6 47 -15 108 -20 135 -5 28 -16 97 -25 155
-8 58 -26 179 -40 269 -36 239 -36 242 28 313 28 32 97 102 152 155 55 53 143
142 195 197 52 55 124 128 160 161 80 73 159 152 226 225 28 30 102 103 166
162 100 93 119 107 154 110 21 2 431 2 909 1 479 -1 1034 -2 1234 -2z m3466
-161 c3 -5 1 -10 -4 -10 -6 0 -11 5 -11 10 0 6 2 10 4 10 3 0 8 -4 11 -10z
m-345 -230 c0 -5 -4 -10 -10 -10 -5 0 -10 5 -10 10 0 6 5 10 10 10 6 0 10 -4
10 -10z m-800 -553 c0 -6 -9 -2 -20 8 -11 10 -20 23 -20 28 0 6 9 2 20 -8 11
-10 20 -23 20 -28z m-215 -188 c11 -17 -1 -21 -15 -4 -8 9 -8 15 -2 15 6 0 14
-5 17 -11z m-4 -162 c-8 -8 -11 -7 -11 4 0 20 13 34 18 19 3 -7 -1 -17 -7 -23z
m-5961 -143 c0 -12 -4 -12 -20 -2 -11 7 -20 16 -20 19 0 4 9 5 20 2 11 -3 20
-12 20 -19z m-275 -77 c-22 -53 -27 -46 -8 10 9 26 18 43 20 37 2 -6 -3 -27
-12 -47z m512 21 c-3 -8 -6 -5 -6 6 -1 11 2 17 5 13 3 -3 4 -12 1 -19z m-49
-78 c0 -9 -3 -7 -8 5 -5 11 -8 29 -8 40 0 16 2 15 8 -5 4 -14 8 -32 8 -40z
m-333 20 c10 -11 16 -20 13 -20 -3 0 -13 9 -23 20 -10 11 -16 20 -13 20 3 0
13 -9 23 -20z m-45 -71 c0 -5 -4 -9 -10 -9 -5 0 -10 7 -10 16 0 8 5 12 10 9 6
-3 10 -10 10 -16z m-145 -19 c-9 -16 -18 -30 -21 -30 -2 0 2 14 11 30 9 17 18
30 21 30 2 0 -2 -13 -11 -30z m712 -2 c-3 -8 -6 -5 -6 6 -1 11 2 17 5 13 3 -3
4 -12 1 -19z m-10 -60 c-3 -7 -5 -2 -5 12 0 14 2 19 5 13 2 -7 2 -19 0 -25z
m-517 2 c0 -5 -4 -10 -10 -10 -5 0 -10 5 -10 10 0 6 5 10 10 10 6 0 10 -4 10
-10z m-95 -31 c11 -17 -1 -21 -15 -4 -8 9 -8 15 -2 15 6 0 14 -5 17 -11z m112
-5 c-3 -3 -12 -4 -19 -1 -8 3 -5 6 6 6 11 1 17 -2 13 -5z m496 -44 c3 -11 1
-23 -4 -26 -5 -3 -9 6 -9 20 0 31 6 34 13 6z m-3 -122 c0 -35 -5 -70 -10 -78
-7 -10 -10 9 -10 63 0 45 4 77 10 77 6 0 10 -27 10 -62z m4364 -424 c5 -14 4
-15 -9 -4 -17 14 -19 20 -6 20 5 0 12 -7 15 -16z m-94 -99 c0 -8 -4 -15 -9
-15 -13 0 -22 16 -14 24 11 11 23 6 23 -9z m-2651 -150 l0 -20 -9 20 c-5 11
-9 29 -9 40 l0 20 9 -20 c5 -11 9 -29 9 -40z m1094 -42 c-7 -2 -19 -2 -25 0
-7 3 -2 5 12 5 14 0 19 -2 13 -5z m-577 -163 c22 -12 28 -18 14 -14 -23 6 -71
34 -59 34 3 0 23 -9 45 -20z m101 -26 c-3 -3 -12 -4 -19 -1 -8 3 -5 6 6 6 11
1 17 -2 13 -5z"/>
<path d="M4550 10667 c-30 -11 -56 -24 -58 -29 -2 -4 -12 -8 -22 -8 -38 0
-459 -193 -632 -290 -126 -72 -454 -287 -558 -369 -261 -203 -549 -480 -749
-721 -179 -215 -337 -439 -328 -468 49 -168 184 -595 237 -752 38 -113 82
-250 99 -305 60 -205 103 -340 111 -348 13 -14 76 -36 851 -292 l477 -158 78
57 c44 31 115 84 159 117 44 32 127 91 185 130 58 40 121 86 140 104 19 18
105 81 190 140 85 60 232 165 325 235 94 69 211 154 260 189 50 34 122 87 160
117 39 30 111 82 160 116 50 34 136 95 193 137 l102 75 0 707 -1 707 -82 60
c-45 32 -210 152 -367 267 -157 114 -355 258 -440 320 -85 61 -208 151 -274
198 -68 50 -127 87 -140 86 -11 -1 -46 -11 -76 -22z"/>
<path d="M7543 10627 c-44 -34 -79 -65 -77 -68 2 -4 -2 -6 -9 -5 -6 0 -59 -34
-117 -76 -58 -43 -141 -103 -186 -135 -44 -32 -219 -159 -388 -283 -168 -124
-331 -242 -361 -264 l-55 -39 0 -703 0 -703 119 -88 c65 -48 171 -126 236
-173 65 -47 182 -131 259 -188 78 -56 197 -143 266 -192 161 -116 487 -353
626 -454 60 -44 182 -133 271 -198 89 -65 171 -118 181 -118 10 0 83 23 163
50 237 83 426 146 569 190 297 91 576 185 593 200 4 3 25 67 47 141 22 74 90
285 150 469 60 184 141 440 180 568 60 197 69 236 59 255 -28 52 -175 262
-218 310 -26 29 -82 97 -126 152 -237 298 -652 664 -1035 912 -261 170 -577
330 -895 454 -153 60 -155 60 -252 -14z m-86 -159 c-3 -8 -6 -5 -6 6 -1 11 2
17 5 13 3 -3 4 -12 1 -19z m-962 -708 c3 -5 2 -10 -4 -10 -5 0 -13 5 -16 10
-3 6 -2 10 4 10 5 0 13 -4 16 -10z"/>
<path d="M9600 6919 c-63 -21 -192 -62 -287 -93 -94 -30 -179 -59 -190 -65
-10 -5 -112 -40 -228 -77 -115 -37 -266 -86 -334 -108 l-125 -41 -64 -200
c-74 -233 -302 -933 -508 -1559 -79 -241 -144 -443 -144 -450 0 -6 209 -220
464 -475 l464 -464 48 7 c103 14 444 68 554 88 63 11 135 24 160 28 25 5 175
29 334 55 160 25 291 47 291 48 1 1 35 54 77 117 98 150 155 249 221 390 30
63 80 168 110 232 93 197 165 402 237 683 47 186 105 466 125 615 14 100 35
466 30 528 -1 23 -61 68 -530 402 -82 59 -235 168 -339 243 -151 109 -196 137
-220 136 -17 -1 -83 -19 -146 -40z"/>
<path d="M2350 6848 c-85 -61 -227 -162 -315 -225 -88 -62 -205 -146 -260
-187 -55 -40 -152 -109 -216 -154 l-115 -81 3 -148 c2 -82 8 -173 13 -203 6
-30 12 -93 15 -140 3 -47 10 -101 14 -120 5 -19 12 -60 15 -90 18 -156 129
-615 196 -804 97 -274 287 -675 423 -891 211 -337 236 -366 337 -380 25 -4 99
-15 165 -26 463 -72 990 -150 1006 -147 19 3 943 917 958 948 9 17 -5 65 -169
560 -65 195 -137 416 -160 490 -23 74 -82 257 -130 405 -104 314 -241 738
-261 809 -8 27 -23 55 -34 62 -11 7 -135 49 -275 93 -140 45 -298 97 -350 116
-146 53 -675 225 -691 225 -8 0 -84 -51 -169 -112z"/>
<path d="M4460 3464 l-515 -515 2 -59 c3 -56 61 -432 103 -660 10 -58 22 -129
25 -158 l7 -52 106 -51 c398 -191 752 -292 1357 -389 278 -44 952 -45 1190 -1
28 6 109 19 180 31 304 51 622 133 875 227 73 26 365 156 377 167 5 4 105 590
133 776 12 80 26 167 31 193 5 26 9 65 9 85 0 36 -18 55 -443 480 l-442 442
-1240 0 -1241 0 -514 -516z"/>
</g>
</svg>
