<svg width="200" height="200" viewBox="0 0 200 200" fill="none" xmlns="http://www.w3.org/2000/svg">
<path d="M140.51 70.1731C146.235 76.3115 145.811 88.6154 144.883 94C149.521 94 157.843 90.7692 154.027 77.8462C150.21 64.9231 152.966 57.6538 154.822 55.6346L139.317 52C137.33 55.5 134.785 64.0346 140.51 70.1731Z" fill="#DDDDDD"/>
<path d="M146 91.1L145.36 96L142.747 95.2855L130 91.8V89L143.448 90.9135L146 91.1Z" fill="#9D8009"/>
<path d="M143.448 90.9135L146 91.1L145.36 96L142.747 95.2855M143.448 90.9135L130 89V91.8L142.747 95.2855M143.448 90.9135L142.747 95.2855" stroke="black"/>
<path d="M146 91.1L145.36 96L142.747 95.2855L143.448 90.9135L146 91.1Z" fill="#E05050" stroke="black"/>
</svg>
