<svg width="200" height="200" viewBox="0 0 200 200" fill="none" xmlns="http://www.w3.org/2000/svg">
<path d="M139.738 83.1243C139.816 84.0838 142.17 85.3449 143.337 85.8556C143.92 84.7227 144.95 82.2585 144.405 81.465C143.724 80.473 142.265 80.0661 142.071 82.2946C140.515 80.6883 139.64 81.9249 139.738 83.1243Z" fill="#4C89E4" stroke="black" stroke-miterlimit="2.9238"/>
<path d="M149.937 73.6679C149.132 74.8052 150.571 78.3925 151.392 80.0441C153.092 79.3291 156.525 77.5523 156.658 76.1653C156.824 74.4316 155.583 72.6239 153.297 74.9166C153.063 71.6874 150.943 72.2463 149.937 73.6679Z" fill="#4C89E4" stroke="black" stroke-miterlimit="2.9238"/>
<path d="M137.102 65.6581C137.432 67.6607 142.596 69.9048 145.137 70.7765C146.167 68.2955 147.906 62.94 146.624 61.3665C145.021 59.3996 141.885 58.7961 141.863 63.5123C138.315 60.4054 136.69 63.1547 137.102 65.6581Z" fill="#4C89E4" stroke="black" stroke-miterlimit="2.9238"/>
</svg>
