<svg width="100" height="100" viewBox="0 0 100 100" fill="none" xmlns="http://www.w3.org/2000/svg">
<rect width="100" height="100" fill="white"/>
<path d="M42.7617 31.435C45.6292 30.6791 48.6764 30 50.5 30C52.3236 30 55.3708 30.6791 58.2383 31.435C61.1719 32.2037 64.1292 33.1134 65.8682 33.6644C66.5953 33.8972 67.2399 34.3241 67.7279 34.8962C68.216 35.4682 68.5277 36.1621 68.6273 36.8983C70.2025 48.3706 66.5474 56.8729 62.1127 62.4976C60.2322 64.9038 57.9898 67.0226 55.4606 68.7834C54.5861 69.3927 53.6595 69.9285 52.6909 70.385C51.9509 70.7233 51.1554 71 50.5 71C49.8446 71 49.0517 70.7233 48.3091 70.385C47.3405 69.9286 46.4139 69.3928 45.5394 68.7834C43.0102 67.0226 40.7679 64.9037 38.8873 62.4976C34.4526 56.8729 30.7975 48.3706 32.3727 36.8983C32.4723 36.1621 32.784 35.4682 33.2721 34.8962C33.7601 34.3241 34.4047 33.8972 35.1318 33.6644C37.6562 32.8618 40.2003 32.1185 42.7617 31.435Z" fill="#0F006C"/>
<path d="M44.0166 34.225C46.4191 33.5797 48.9721 33 50.5 33C52.0279 33 54.5809 33.5797 56.9834 34.225C59.4413 34.8812 61.9191 35.6578 63.3761 36.1281C63.9852 36.3269 64.5253 36.6913 64.9342 37.1797C65.3431 37.668 65.6043 38.2604 65.6878 38.8887C67.0075 48.6822 63.9451 55.9403 60.2296 60.7419C58.654 62.7959 56.7753 64.6047 54.6562 66.1078C53.9235 66.628 53.1471 67.0853 52.3356 67.475C51.7156 67.7637 51.0491 68 50.5 68C49.9509 68 49.2866 67.7637 48.6644 67.475C47.8529 67.0854 47.0765 66.628 46.3438 66.1078C44.2248 64.6046 42.3461 62.7958 40.7704 60.7419C37.0549 55.9403 33.9925 48.6822 35.3122 38.8887C35.3957 38.2604 35.6569 37.668 36.0658 37.1797C36.4747 36.6913 37.0148 36.3269 37.6239 36.1281C39.739 35.443 41.8705 34.8085 44.0166 34.225Z" fill="white"/>
<rect x="49" y="32" width="3" height="37" fill="#0F006C"/>
<path d="M40 50H61V53H40V50Z" fill="#0F006C"/>
<path d="M38 41H63V44H38V41Z" fill="#0F006C"/>
<path d="M67 38H81V41H67V38Z" fill="#0F006C"/>
<path d="M67 44H79V47H67V44Z" fill="#0F006C"/>
<path d="M66 50H77V53H66V50Z" fill="#0F006C"/>
<path d="M34 38H20V41H34V38Z" fill="#0F006C"/>
<path d="M34 44H22V47H34V44Z" fill="#0F006C"/>
<path d="M35 50H24V53H35V50Z" fill="#0F006C"/>
</svg>
