<svg width="200" height="200" viewBox="0 0 200 200" fill="none"
    xmlns="http://www.w3.org/2000/svg">
    <path d="M124.187 83.3262C120.512 81.354 117.645 88.8045 115 92.7763C119.037 96.3372 126.108 99.1037 130.451 94.8307C134.793 90.5576 127.388 93.2817 125.022 92.3654C126.201 92.2563 129.996 89.7431 131.286 89.4893C135.462 88.6676 133.791 84.148 132.956 84.5589C132.121 84.9697 128.78 85.7915 124.187 83.3262Z" fill="BEAK_COLOR"/>
    <path d="M120.846 91.1328C121.135 91.4168 122.384 92.6097 125.022 92.3654M125.022 92.3654C126.201 92.2563 129.996 89.7431 131.286 89.4893C135.462 88.6676 133.791 84.148 132.956 84.5589C132.121 84.9697 128.78 85.7915 124.187 83.3262C120.512 81.354 117.645 88.8045 115 92.7763C119.037 96.3372 126.108 99.1037 130.451 94.8307C134.793 90.5576 127.388 93.2817 125.022 92.3654Z" stroke="black"/>
</svg>
