<svg width="200" height="200" viewBox="0 0 200 200" fill="none" xmlns="http://www.w3.org/2000/svg">
<path d="M103 52.5L100.5 70C110.1 72 112.333 68.3333 113.5 66L103 52.5Z" fill="#E05050" stroke="black"/>
<path d="M103 52.5C101.667 52.5 98.8 52.9 98 54.5L97 52C98.3333 51.6667 101.4 51.3 103 52.5C102.2 51.3 100.333 50.6667 99.5 50.5L101.5 49C101.833 49.5 102.6 50.9 103 52.5Z" fill="white"/>
<path d="M103 52.5C101.667 52.5 98.8 52.9 98 54.5L97 52C98.3333 51.6667 101.4 51.3 103 52.5ZM103 52.5C102.2 51.3 100.333 50.6667 99.5 50.5L101.5 49C101.833 49.5 102.6 50.9 103 52.5Z" stroke="black"/>
</svg>
