<svg width="200" height="200" viewBox="0 0 200 200" fill="none" xmlns="http://www.w3.org/2000/svg">
<path d="M122.74 73.451C109.74 78.951 92.5734 76.1176 88.74 71.451C85.94 67.851 91.74 64.951 95.24 64.451C96.958 57.3521 100.975 48.005 106.219 52.91C113.194 46.9584 118.659 56.211 121.24 62.951C129.74 62.951 135.427 68.0835 122.74 73.451Z" fill="#9D8009"/>
<path d="M94.74 68.451L95.24 64.451M106.219 52.91C107.994 54.5698 109.995 57.4607 112.24 61.951M106.219 52.91C100.975 48.005 96.958 57.3521 95.24 64.451M106.219 52.91C113.194 46.9584 118.659 56.211 121.24 62.951M121.74 65.451L121.24 62.951M95.24 64.451C91.74 64.951 85.94 67.851 88.74 71.451C92.5734 76.1176 109.74 78.951 122.74 73.451C135.427 68.0835 129.74 62.951 121.24 62.951" stroke="black"/>
<path d="M121.24 63.951C114.84 68.751 101.573 67.951 95.24 66.951L96.24 62.451C101.907 63.6176 114.14 64.751 119.74 59.951L121.24 63.951Z" fill="white" stroke="black"/>
</svg>
