<svg width="200" height="200" viewBox="0 0 200 200" fill="none" xmlns="http://www.w3.org/2000/svg">
<path d="M132.889 64.5652C133.176 67.2621 131.979 68.3938 130.389 70.5652L93.3891 77.5652C89.6916 76.7682 88.198 75.7473 86.3891 73.0652C85.5655 71.1804 86.0419 70.0785 87.8891 68.0652C91.1064 67.7993 92.923 67.4921 96.3891 64.0652C97.4282 62.227 97.8951 61.0684 97.8891 58.0652C105.23 51.5449 109.579 50.398 117.889 54.0652C118.803 57.352 120.041 58.6706 122.889 60.5652C125.039 61.2166 126.325 61.312 128.889 60.5652C131.248 61.4743 131.81 62.6066 132.889 64.5652Z" fill="#9D8009" stroke="black"/>
<path d="M109.357 71L107.786 69.2609L108.964 68.8261L110.929 66.6522L110.143 64.4783L108.179 63.6087L107 64.0435L107.786 61.4348L108.964 62.7391L110.536 63.1739L110.929 61.4348L113.679 61L114.857 63.1739L116.429 62.3043L117.214 61L118 63.6087L117.214 63.1739L115.25 64.4783L114.857 66.2174L116.429 67.5217L118 67.9565L116.036 70.1304V68.8261L114.464 67.5217L114.857 70.1304H111.714V67.9565L110.143 69.2609L109.357 71Z" fill="white" stroke="black"/>
</svg>
